<svg xmlns="http://www.w3.org/2000/svg" version="1.0" width="753.5" height="643.901" viewBox="0 0 7535 6439.006"><g fill="#20488e"><path d="M6374 4286.004c-176-35-283-110-349-243-39-80-49-144-43-277 4-101 18-179 81-470 42-193 78-351 80-353s97-2 212-1l209 3-83 380c-86 394-99 492-73 552 37 89 212 110 318 38 83-56 98-100 199-574 46-217 86-396 87-398 2-2 98-2 214-1l209 3-91 420c-107 489-113 514-168 620-77 150-203 250-368 290-90 22-344 29-434 11zM1899 4271.004c0-7 266-1228 285-1309l6-23 397 3c391 3 398 4 456 27 75 30 147 96 177 164 43.294 124.902 30.388 270.799-15 363-73 147-194 238-359 269-51 10-140 15-248 15-93 0-169 1-169 3 0 1-24 112-53 247l-53 245-212 3c-123 1-212-1-212-7zm842-783c89-50 132-152 95-225-23-44-58-54-177-51l-103 3-33 145c-19 80-34 149-34 154s46 6 105 3c84-5 114-10 147-29zM3203 4281.449s66-319.445 141-666.445l147-675h554c305 0 554 2 554 5 0 2-13 66-30 142-16 75-30 138-30 140s-155 3-344 3h-343l-17 83c-10 45-20 92-23 105l-5 22h332c311 0 326 1.399 326 1.399s-17 86.6-31 150.6l-27 118-331 2-331 3-21 100c-12 55-25 112-28 128l-7 27h370c323 0 370 2.089 370 2.089s-13 88.912-30 162.912c-16 74-30 137-30 140s-264 5-586 5c-553 0-580 1.445-580 1.445zM4509 4273.004c0-5 64-306 142-671l142-663 451 3c406 3 455 5 497 22 66 25 141 95 175 164 43.987 115.938 42.13 247.731-5 344-60 122-165 201-303 230l-57 12 49 64c69 91 210 376 234 475l7 27h-440l-32-77c-174-421-196-458-284-465l-39-3-53 250c-29 138-62.69 291.445-62.69 291.445s-2.31 3.555-211.31 3.555c-116 0-210-3-210-7zm885-803c92-15 143-63 152-142 11-92-50-118-268-118-115 0-119 1-124 23-3 12-16 73-29 135l-23 112h116c64 0 143-5 176-10zM1189 2543.004c-174-60-251-221-206-426 48-215 194-357 399-389 187-28 348 46 415 191 22 47 26 70 26 146 0 233-153 436-365 484-67 16-217 12-269-6zm265-148c122-59 208-243 181-389-8-44-59-104-103-122-54-23-142-18-202 12-117 59-206 255-172 382 33 120 173 176 296 117zM3104 2546.004c-65-21-98-41-146-93-75-80-100-188-74-318 38-193 147-327 314-387 83-30 245-30 322 1 125 48 199 152 207 291 13 227-128 436-337 500-74 23-222 26-286 6zm261-154c83-42 153-149 175-267 19-103-9-181-80-226-37-24-56-29-108-29-78 0-118 16-176 69-125 116-157 345-60 433 57 52 169 61 249 20zM1828.783 2547.568S1997 1803.004 2004 1773.004l7-33h265l8 193c4 105 10 229 14 274l6 83 145-275 145-275h267l-6 26c-13 49-178.609 780.825-178.609 785.825l-167.391.305c0-5 36-154.13 80-322.13 43-168 78-306 76-307-1-1-75 138-164 310l-161 317.217-177 .783-12-258c-7-142-12-282-12-310 0-29-3-53-8-53-4 0-22 73-40 163-19 89-48 228-64 310l-31 147-167.217-2.436zM358 2546.004c-117-31-188-108-197-212l-4-52 86-4 87-3 6 38c12 75 62 107 168 107 70 0 121-16 145-47 49-63 15-105-140-171-63-26-134-60-157-75-102-65-119-210-36-306 46-54 95-79 188-93 154-24 298 22 362 116 29 42 42 121 42 121s-44 7-92 11c-78 6-83.087 5.651-83.087 5.651 0-33-33.913-89.651-69.913-106.651-27-13-54-16-106-13-62 3-73 7-94 31-57 67-22 103 177 186 163 68 209 118 209 228 0 109-80 201-204 238-60 18-222 19-287 1zM3970 2548.004c-117-31-188-108-197-212l-4-52 86-4 87-3 6 38c12 75 62 107 168 107 70 0 121-16 145-47 49-63 15-105-140-171-63-26-134-60-157-75-102-65-119-210-36-306 46-54 95-79 188-93 154-24 298 22 362 116 29 42 42 121 42 121s-44 7-92 11c-78 6-83.087 5.651-83.087 5.651 0-33-33.913-89.651-69.913-106.651-27-13-54-16-106-13-62 3-73 7-94 31-57 67-22 103 177 186 163 68 209 118 209 228 0 109-80 201-204 238-60 18-222 19-287 1z"/></g><g fill="#fb1320"><path d="M3319 6271.004c-52-37-214-150-360-251-815-565-1266-925-1691-1350-332-332-509-545-706-854-106-165-268-491-329-661-40-113-109-364-128-462l-5-33h585l28 93c106 354 328 779 583 1115 407 535 909 972 1843 1601l253 171 31-23c17-13 123-91 236-172 427-309 851-634 1205-922l199-163 776-2.303c0 4-82 103.303-182 184.303-101 80-302 251-448 379-261 229-654 548-1145 930-285 222-639 489-646 488-2 0-47-31-99-68zM6113 2813.004c51-165 86-391 93-598 16-468-102-821-367-1099-466-488-1181-573-1729-204-176 120-290 242-491 528-67 96-124 176-125 178-2 2-56-59-121-135-149-175-416-443-514-515-172-127-353-216-539-266-86-23-114-26-271-26-147 0-187 4-252 22-258 71-451 194-714 456-131 132-210 232-300 383l-49 82-292 1c-184 0-293-4-293-10 0-17 58-157 100-239 116-232 289-472 495-689 359-377 826-583 1323-582 435 1 852 164 1247 487 61 49 116 97 124 107 13 15 20 10 85-52 674-648 1687-718 2461-170 100 71 296 255 378 356 187 229 340 537 406 819 78 332 70 737-21 1101l-20 82h-310c-290 0-309-1-304-17z"/></g></svg>